# AST/ASF file generated using VICON BodyLanguage
# -----------------------------------------------
:version 1.10
:name VICON
:units
  mass 1.0
  length 0.45
  angle deg
:documentation
   .ast/.asf automatically generated from VICON data using
   VICON BodyBuilder and BodyLanguage model FoxedUp or BRILLIANT.MOD
:root
   order TX TY TZ RX RY RZ
   axis XYZ
   position 0 0 0  
   orientation 0 0 0 
:bonedata
  begin
     id 1 
     name lhipjoint
     direction 0.64773 -0.699417 0.302095 
     length 2.48597 
     axis 0 0 0  XYZ
  end
  begin
     id 2 
     name lfemur
     direction 0.34202 -0.939693 0  
     length 6.71947  
     axis 0 0 20  XYZ
    dof rx ry rz
    limits (-160.0 20.0)
           (-70.0 70.0)
           (-60.0 70.0)
  end
  begin
     id 3 
     name ltibia
     direction 0.34202 -0.939693 0   
     length 8.08777   
     axis 0 0 20   XYZ
    dof rx
    limits (-10.0 170.0)
  end
  begin
     id 4 
     name lfoot
     direction 0.0808503 -0.222134 0.971658   
     length 2.08264   
     axis -90 7.62852e-016 20   XYZ
    dof rx rz
    limits (-45.0 90.0)
           (-70.0 20.0)
  end
  begin
     id 5 
     name ltoes
     direction 1.53502e-011 -4.22007e-011 1   
     length 1.04662   
     axis -90 7.62852e-016 20   XYZ
    dof rx
    limits (-90.0 20.0)
  end
  begin
     id 6 
     name rhipjoint
     direction -0.610924 -0.726792 0.313919   
     length 2.39233  
     axis 0 0 0  XYZ 
  end
  begin
     id 7 
     name rfemur
     direction -0.34202 -0.939693 0   
     length 6.96955   
     axis 0 0 -20   XYZ
    dof rx ry rz
    limits (-160.0 20.0)
           (-70.0 70.0)
           (-70.0 60.0)
  end
  begin
     id 8 
     name rtibia
     direction -0.34202 -0.939693 0   
     length 8.19584   
     axis 0 0 -20   XYZ
    dof rx
    limits (-10.0 170.0)
 end
 begin
     id 9 
     name rfoot
     direction -0.077777 -0.213691 0.9738   
     length 2.07539  
     axis -90 -7.62852e-016 -20   XYZ
    dof rx rz
    limits (-45.0 90.0)
           (-20.0 70.0)
  end
  begin
     id 10 
     name rtoes
     direction -1.53558e-011 -4.22006e-011 1   
     length 1.04381   
     axis -90 -7.62852e-016 -20   XYZ
    dof rx
    limits (-90.0 20.0)
  end
  begin
     id 11 
     name lowerback
     direction -0.00971646 0.996074 0.0879841   
     length 1.67643   
     axis 0 0 0   XYZ
    dof rx ry rz
    limits (-20.0 45.0)
           (-30.0 30.0)
           (-30.0 30.0)
  end
  begin
     id 12 
     name upperback
     direction 0.0127391 0.991676 0.128127   
     length 1.63741   
     axis 0 0 0   XYZ
    dof rx ry rz
    limits (-20.0 45.0)
           (-30.0 30.0)
           (-30.0 30.0)
  end
  begin
     id 13 
     name thorax
     direction 0.0167583 0.996049 0.0872067   
     length 1.65931   
     axis 0 0 0   XYZ
    dof rx ry rz
    limits (-20.0 45.0)
           (-30.0 30.0)
           (-30.0 30.0)
  end
  begin
     id 14 
     name lowerneck
     direction -0.0317829 0.998312 0.0486079   
     length 1.79021   
     axis 0 0 0   XYZ
    dof rx ry rz
    limits (-20.0 45.0)
           (-30.0 30.0)
           (-30.0 30.0)
  end
  begin
     id 15 
     name upperneck
     direction 0.0896851 0.972452 -0.215159   
     length 1.78797   
     axis 0 0 0   XYZ
    dof rx ry rz
    limits (-20.0 45.0)
           (-30.0 30.0)
           (-30.0 30.0)
  end
  begin
     id 16
     name head
     direction 0.0310949 0.996503 -0.0775582  
     length 1.81549  
     axis 0 0 0   XYZ
    dof rx ry rz
    limits (-20.0 45.0)
           (-30.0 30.0)
           (-30.0 30.0)
  end
  begin
     id 17 
     name lclavicle
     direction 0.853638 0.502051 -0.138733  
     length 3.31627  
     axis 0 0 0   XYZ
    dof ry rz
    limits (-20.0 10.0)
           (0.0 20.0)
  end
  begin
     id 18 
     name lhumerus
     direction 1 -4.48962e-011 -1.41788e-018   
     length 5.54893   
     axis 180 -30 -90   XYZ
    dof rx ry rz
    limits (-60.0 90.0)
           (-90.0 90.0)
           (-90.0 90.0)
  end
  begin
     id 19
     name lradius
     direction 1 -4.48962e-011 -4.95754e-027   
     length 3.02898   
     axis 180 -30 -90   XYZ
    dof rx
    limits (-10.0 170.0)
  end
  begin
     id 20
     name lwrist
     direction 1 -4.48952e-011 -1.03764e-026   
     length 1.51449   
     axis 9.09556e-015 90 90   XYZ
    dof ry
    limits (-180.0 0.0)
 end
  begin
     id 21 
     name lhand
     direction 1 -4.4902e-011 -2.07528e-026   
     length 0.640951   
     axis 1.3242e-014 90 90   XYZ
    dof rx rz
    limits (-90.0 90.0)
           (-45.0 45.0)
  end
  begin
     id 22 
     name lfingers
     direction 1 -4.49014e-011 -4.15056e-026   
     length 0.516751   
     axis 2.64841e-014 90 90   XYZ
    dof rx
    limits (0.0 90.0)
  end
  begin
     id 23
     name lthumb
     direction 0.707107 -6.35008e-011 0.707107   
     length 0.741954   
     axis -90 45 2.85299e-015   XYZ
    dof rx rz
    limits (-45.0 45.0)
           (-45.0 45.0)
  end
  begin
     id 24 
     name rclavicle
     direction -0.888531 0.455324 -0.0565039   
     length 3.20126  
     axis 0 0 0   XYZ 
    dof ry rz
    limits (-10.0 20.0)
           (-20.0 0.0)
  end
  begin
     id 25 
     name rhumerus
     direction -1 -4.48946e-011 -8.98298e-028  
     length 5.3519   
     axis 180 30 90   XYZ
    dof rx ry rz
    limits (-90.0 60.0)
           (-90.0 90.0)
           (-90.0 90.0)
  end
  begin
     id 26 
     name rradius
     direction -1 -4.4899e-011 -3.18779e-027   
     length 3.02531   
     axis 180 30 90   XYZ
    dof rx
    limits (-10.0 170.0)
  end
  begin
     id 27 
     name rwrist
     direction -1 -4.4897e-011 -1.03764e-026   
     length 1.51266   
     axis 9.09556e-015 -90 -90   XYZ
    dof ry
    limits (-180.0 0.0)
  end
  begin
     id 28
     name rhand
     direction -1 -4.48941e-011 -2.07528e-026   
     length 0.78389   
     axis 1.3242e-014 -90 -90   XYZ
    dof rx rz
    limits (-90.0 90.0)
           (-45.0 45.0)
  end
  begin
     id 29
     name rfingers
     direction -1 -4.49012e-011 -4.15056e-026   
     length 0.631992   
     axis 2.64841e-014 -90 -90   XYZ
    dof rx
    limits (0.0 90.0)
  end
  begin
     id 30
     name rthumb
     direction -0.707107 -6.3496e-011 0.707107   
     length 0.907418   
     axis -90 -45 -2.85299e-015   XYZ
    dof rx rz
    limits (-45.0 45.0)
           (-45.0 45.0)
  end
:hierarchy
  begin
    root lhipjoint rhipjoint lowerback
    lhipjoint lfemur
    lfemur ltibia
    ltibia lfoot
    lfoot ltoes
    rhipjoint rfemur
    rfemur rtibia
    rtibia rfoot
    rfoot rtoes
    lowerback upperback
    upperback thorax
    thorax lowerneck lclavicle rclavicle
    lowerneck upperneck
    upperneck head
    lclavicle lhumerus
    lhumerus lradius
    lradius lwrist
    lwrist lhand lthumb
    lhand lfingers
    rclavicle rhumerus
    rhumerus rradius
    rradius rwrist
    rwrist rhand rthumb
    rhand rfingers
  end

#!OML:ASF E:\Style3\Style3.ASF
:FULLY-SPECIFIED
:DEGREES
216
root -1.87876 17.5118 1.91311 -302.586 87.3691 -323.181
lowerback 27.7658 -0.484532 -0.671811
upperback 4.09299 0.839789 8.9083
thorax -10.5662 0.78474 9.64957
lowerneck -7.95934 5.80387 3.07001
upperneck -12.9228 7.27614 -11.9425
head -2.21425 4.04847 -4.47894
rclavicle -3.18055e-015 -2.54444e-014
rhumerus 106.108 77.5852 8.06311
rradius 102.129
rwrist -55.7683
rhand 4.45582 19.0589
rfingers 7.12502
rthumb 29.8508 -8.55527
lclavicle -3.18055e-015 -2.54444e-014
lhumerus 101.605 -47.9842 19.4953
lradius 119.145
lwrist 76.9833
lhand -0.782134 28.8705
lfingers 7.12502
lthumb 24.841 57.2767
rfemur -42.7883 2.13863 17.1959
rtibia 35.4948
rfoot -12.4549 -6.9199
rtoes -19.2329
lfemur -32.12 0.638528 -12.8324
ltibia 19.9952
lfoot -6.45256 13.8156
ltoes -20.8589
217
root -1.87883 17.4969 1.91705 -303.766 87.5091 -324.295
lowerback 27.7738 -0.572595 -0.504469
upperback 4.07337 0.781271 8.92407
thorax -10.5788 0.752895 9.59316
lowerneck -7.7909 5.89094 3.07681
upperneck -13.1369 7.3793 -12.0252
head -2.30504 4.11529 -4.52423
rclavicle -1.11319e-014 4.77083e-014
rhumerus 102.206 77.6443 5.42664
rradius 101.318
rwrist -55.1253
rhand 5.0948 18.4993
rfingers 7.12502
rthumb 30.4604 -9.00358
lclavicle -1.11319e-014 4.77083e-014
lhumerus 100.649 -48.4894 18.4771
lradius 118.321
lwrist 77.0976
lhand -2.75497 29.145
lfingers 7.12502
lthumb 22.9491 57.7991
rfemur -42.6675 2.0535 17.4084
rtibia 35.5216
rfoot -12.5497 -6.9148
rtoes -20.4045
lfemur -32.407 0.827399 -12.7304
ltibia 20.5875
lfoot -6.72918 13.5995
ltoes -20.9746
218
root -1.87883 17.4873 1.91533 -305.928 87.7586 -326.343
lowerback 27.8398 -0.724906 -0.123969
upperback 4.04743 0.707469 8.92846
thorax -10.6173 0.707085 9.40877
lowerneck -7.44259 5.95912 3.16728
upperneck -13.7277 7.37658 -12.4636
head -2.22562 4.17305 -4.26545
rclavicle -2.8625e-014 0
rhumerus 98.145 77.7332 2.63565
rradius 100.285
rwrist -54.4917
rhand 5.5691 18.1737
rfingers 7.12502
rthumb 30.9126 -9.24434
lclavicle -2.8625e-014 0
lhumerus 99.7449 -49.1011 17.463
lradius 117.09
lwrist 76.7852
lhand -3.94098 29.2431
lfingers 7.12502
lthumb 21.8106 58.034
rfemur -42.5215 1.93628 17.7225
rtibia 35.5463
rfoot -12.6639 -7.04711
rtoes -22.8238
lfemur -32.5912 0.939058 -12.5187
ltibia 21.0744
lfoot -6.89697 13.3823
ltoes -21.4963
219
root -1.87838 17.4856 1.91359 -307.662 88.0004 -327.96
lowerback 27.9024 -0.87722 0.264862
upperback 4.03674 0.633763 8.91554
thorax -10.6366 0.659857 9.2001
lowerneck -7.34621 6.02488 3.13231
upperneck -13.8798 7.46123 -12.4591
head -2.28163 4.22657 -4.26475
rclavicle 6.36111e-015 1.27222e-014
rhumerus 94.2322 77.8031 0.0873392
rradius 99.0903
rwrist -53.7433
rhand 5.55377 17.9714
rfingers 7.12502
rthumb 30.898 -9.4495
lclavicle 6.36111e-015 1.27222e-014
lhumerus 98.8921 -49.7514 16.3731
lradius 115.746
lwrist 76.2457
lhand -5.62224 29.3671
lfingers 7.12502
lthumb 20.1955 58.3373
rfemur -42.4196 1.78428 17.9979
rtibia 35.566
rfoot -12.7403 -7.03872
rtoes -23.7234
lfemur -32.7542 1.01041 -12.3425
ltibia 21.5231
lfoot -7.05075 13.2304
ltoes -21.6851
220
root -1.87631 17.4842 1.91933 -309.543 88.0731 -329.765
lowerback 27.8808 -0.917839 0.4201
upperback 4.04987 0.621122 8.87886
thorax -10.6047 0.646472 9.07431
lowerneck -7.32088 6.08245 3.12016
upperneck -13.9577 7.53656 -12.4789
head -2.30269 4.27041 -4.2706
rclavicle -1.59028e-015 -3.97569e-014
rhumerus 90.493 77.8578 -2.23662
rradius 97.6897
rwrist -52.8191
rhand 5.11437 17.7428
rfingers 7.12502
rthumb 30.4791 -9.75669
lclavicle -1.59028e-015 -3.97569e-014
lhumerus 98.1255 -50.4069 15.222
lradius 114.256
lwrist 75.6738
lhand -7.76149 29.3313
lfingers 7.12502
lthumb 18.1383 58.5056
rfemur -42.3778 1.73479 18.1441
rtibia 35.5896
rfoot -12.7832 -6.92569
rtoes -23.0779
lfemur -32.915 1.11384 -12.2558
ltibia 21.9422
lfoot -7.27482 13.1049
ltoes -21.4509
221
root -1.87555 17.4749 1.92707 -312.94 88.102 -333.063
lowerback 27.8931 -0.896857 0.478889
upperback 4.09318 0.660713 8.84887
thorax -10.5651 0.660838 8.99163
lowerneck -7.26139 6.14254 3.19749
upperneck -14.1005 7.60339 -12.5614
head -2.34193 4.31182 -4.31335
rclavicle 0 -3.02153e-014
rhumerus 86.3873 77.8761 -4.95045
rradius 96.0425
rwrist -51.6185
rhand 4.67152 17.6572
rfingers 7.12502
rthumb 30.0566 -9.91976
lclavicle 0 -3.02153e-014
lhumerus 97.3668 -51.1683 14.2461
lradius 112.41
lwrist 75.0248
lhand -8.56325 29.105
lfingers 7.12502
lthumb 17.3668 58.3492
rfemur -42.2712 1.74473 18.3178
rtibia 35.6301
rfoot -12.8482 -6.96771
rtoes -24.8531
lfemur -32.9975 1.36683 -12.1878
ltibia 22.2952
lfoot -7.43617 12.8747
ltoes -21.5589
222
root -1.8783 17.4673 1.93268 -315.665 88.0954 -335.729
lowerback 27.8794 -0.870285 0.485329
upperback 4.1189 0.688404 8.81156
thorax -10.5322 0.671167 8.93528
lowerneck -7.12597 6.19253 3.2765
upperneck -14.2282 7.6548 -12.6424
head -2.3898 4.34563 -4.3584
rclavicle 6.36111e-015 -4.6118e-014
rhumerus 82.822 77.8599 -7.08505
rradius 94.1788
rwrist -50.4608
rhand 3.84458 17.6958
rfingers 7.12502
rthumb 29.2673 -10.0217
lclavicle 6.36111e-015 -4.6118e-014
lhumerus 96.4079 -52.0737 13.5623
lradius 110.388
lwrist 74.2876
lhand -8.99002 29.3866
lfingers 7.12502
lthumb 16.956 58.6664
rfemur -42.2375 1.77795 18.4387
rtibia 35.6947
rfoot -12.9058 -7.05851
rtoes -26.5537
lfemur -33.1143 1.53445 -12.1177
ltibia 22.5911
lfoot -7.55154 12.7665
ltoes -21.4818
223
root -1.8802 17.4661 1.93597 -318.668 88.049 -338.695
lowerback 27.8485 -0.837178 0.530338
upperback 4.15421 0.726239 8.72647
thorax -10.4787 0.682514 8.7998
lowerneck -7.0893 6.23939 3.42173
upperneck -14.2786 7.70436 -12.713
head -2.39662 4.36905 -4.40507
rclavicle 2.22639e-014 4.77083e-015
rhumerus 78.971 77.8005 -9.56806
rradius 92.1426
rwrist -49.3365
rhand 2.80747 17.5381
rfingers 7.12502
rthumb 28.2766 -10.3478
lclavicle 2.22639e-014 4.77083e-015
lhumerus 95.4685 -52.9959 12.8831
lradius 108.173
lwrist 73.4414
lhand -9.67166 29.5765
lfingers 7.12502
lthumb 16.2998 58.9114
rfemur -42.2632 1.82961 18.5159
rtibia 35.736
rfoot -12.8664 -6.90391
rtoes -24.6411
lfemur -33.2554 1.70711 -12.0804
ltibia 22.9237
lfoot -7.66507 12.726
ltoes -21.5367
224
root -1.88147 17.464 1.93883 -323.336 88.0031 -343.236
lowerback 27.9449 -0.798324 0.598663
upperback 4.2381 0.792659 8.6747
thorax -10.4343 0.708427 8.67791
lowerneck -7.22412 6.28424 3.4208
upperneck -14.2396 7.773 -12.6819
head -2.35999 4.39856 -4.38802
rclavicle -5.725e-014 -5.40694e-014
rhumerus 74.7882 77.7288 -12.3901
rradius 89.994
rwrist -48.0876
rhand 1.67688 17.1568
rfingers 7.12502
rthumb 27.1955 -10.9032
lclavicle -5.725e-014 -5.40694e-014
lhumerus 94.3933 -53.8535 12.3928
lradius 105.805
lwrist 72.5523
lhand -10.134 29.9158
lfingers 7.12502
lthumb 15.8546 59.2867
rfemur -42.2026 1.89732 18.6468
rtibia 35.8016
rfoot -12.8678 -6.61378
rtoes -22.2388
lfemur -33.2288 1.86479 -11.9867
ltibia 23.2375
lfoot -7.80701 12.6873
ltoes -22.0765
225
root -1.87958 17.4561 1.95131 -329.529 87.9167 -349.325
lowerback 27.9234 -0.696383 0.546753
upperback 4.59086 0.890367 8.34599
thorax -10.4747 0.818096 8.93177
lowerneck -7.40943 6.32614 3.36509
upperneck -14.2938 7.84154 -12.6168
head -2.34758 4.43394 -4.35343
rclavicle -1.59028e-014 -2.54444e-014
rhumerus 71.2289 77.5975 -14.5961
rradius 87.6202
rwrist -46.8317
rhand -0.440167 17.122
rfingers 7.12502
rthumb 25.1687 -11.2387
lclavicle -1.59028e-014 -2.54444e-014
lhumerus 93.3599 -54.621 11.8646
lradius 103.305
lwrist 71.4686
lhand -10.366 30.0291
lfingers 7.12502
lthumb 15.6311 59.4176
rfemur -42.0891 2.1278 18.8369
rtibia 35.8593
rfoot -13.0208 -6.70673
rtoes -23.4716
lfemur -33.1738 2.17796 -11.834
ltibia 23.4876
lfoot -7.91488 12.5366
ltoes -22.4457
226
root -1.88371 17.4458 1.94237 -327.647 88.2107 -347.366
lowerback 27.9509 -0.887471 0.865914
upperback 4.65831 0.727031 8.24319
thorax -10.3821 0.725448 8.67336
lowerneck -7.42581 6.39169 3.4204
upperneck -14.4737 7.92706 -12.5693
head -2.39235 4.48162 -4.35192
rclavicle -1.90833e-014 -4.77083e-014
rhumerus 67.6035 77.5267 -16.975
rradius 84.9944
rwrist -45.462
rhand -3.21002 17.3059
rfingers 7.12502
rthumb 22.5124 -11.4017
lclavicle -1.90833e-014 -4.77083e-014
lhumerus 92.1974 -55.4517 11.6101
lradius 100.493
lwrist 70.3561
lhand -11.4905 29.7458
lfingers 7.12502
lthumb 14.548 59.2157
rfemur -42.0051 1.79505 18.9311
rtibia 35.9173
rfoot -12.9868 -6.7385
rtoes -24.0872
lfemur -33.3407 1.93535 -11.7862
ltibia 23.7257
lfoot -7.92235 12.4889
ltoes -22.2439
227
root -1.88705 17.4425 1.93471 -326.366 88.299 -345.897
lowerback 28.1395 -0.990794 1.00866
upperback 4.76546 0.627715 8.10629
thorax -10.3374 0.669357 8.46333
lowerneck -7.42842 6.43459 3.44679
upperneck -14.6412 7.99018 -12.4264
head -2.4441 4.51508 -4.3176
rclavicle -4.92986e-014 -3.65764e-014
rhumerus 62.5415 77.389 -21.039
rradius 82.1901
rwrist -44.4046
rhand -4.81143 16.9551
rfingers 7.12502
rthumb 20.9746 -11.9308
lclavicle -4.92986e-014 -3.65764e-014
lhumerus 90.486 -56.4102 12.0503
lradius 97.2803
lwrist 69.7248
lhand -13.1019 29.4891
lfingers 7.12502
lthumb 12.995 59.0644
rfemur -41.8527 1.53889 18.9903
rtibia 35.9651
rfoot -12.8745 -6.57727
rtoes -23.3116
lfemur -33.3352 1.80005 -11.8103
ltibia 23.9942
lfoot -8.05282 12.5223
ltoes -22.5356
228
root -1.8899 17.4397 1.9336 -325.618 88.2043 -345.037
lowerback 28.2238 -0.950328 0.932532
upperback 4.88003 0.63763 7.9702
thorax -10.2478 0.669241 8.34022
lowerneck -7.46287 6.45133 3.52843
upperneck -14.7466 8.00961 -12.394
head -2.46684 4.52454 -4.32316
rclavicle -3.02153e-014 -4.29375e-014
rhumerus 57.5214 77.0582 -25.1317
rradius 79.1273
rwrist -44.0178
rhand -6.01664 16.7142
rfingers 7.12502
rthumb 19.8164 -12.2956
lclavicle -3.02153e-014 -4.29375e-014
lhumerus 88.6842 -57.3549 12.693
lradius 93.9428
lwrist 69.3944
lhand -14.3293 29.7199
lfingers 7.12502
lthumb 11.8116 59.3668
rfemur -41.8597 1.48497 18.9631
rtibia 36.0676
rfoot -12.9893 -6.593
rtoes -24.7362
lfemur -33.3118 1.84576 -11.8915
ltibia 24.187
lfoot -8.2148 12.5068
ltoes -22.4824
229
root -1.89122 17.4354 1.93591 -326.498 88.1179 -345.893
lowerback 28.1555 -0.905448 0.840834
upperback 4.99931 0.642307 7.86157
thorax -10.075 0.665444 8.25384
lowerneck -7.40434 6.5076 3.68268
upperneck -14.9566 8.06229 -12.5221
head -2.52057 4.55983 -4.39515
rclavicle -2.22639e-014 -3.81667e-014
rhumerus 53.9495 76.6866 -27.869
rradius 75.7458
rwrist -44.047
rhand -7.89139 16.7705
rfingers 7.12502
rthumb 18.0133 -12.4154
lclavicle -2.22639e-014 -3.81667e-014
lhumerus 86.5349 -58.1819 13.6969
lradius 90.5648
lwrist 68.8585
lhand -14.6417 30.4813
lfingers 7.12502
lthumb 11.5103 60.1453
rfemur -41.9401 1.41726 19.0315
rtibia 36.2142
rfoot -13.1449 -6.6238
rtoes -26.1135
lfemur -33.3155 2.0229 -11.9357
ltibia 24.2605
lfoot -8.19107 12.4104
ltoes -22.6807
230
root -1.89605 17.4367 1.94023 -328.426 88.1092 -347.831
lowerback 28.0904 -0.860036 0.804456
upperback 5.12551 0.670157 7.77896
thorax -9.8997 0.672225 8.15712
lowerneck -7.37077 6.54541 3.88228
upperneck -15.1646 8.08426 -12.7026
head -2.56688 4.57916 -4.49028
rclavicle 3.49861e-014 3.18055e-014
rhumerus 51.4494 76.1465 -29.544
rradius 72.305
rwrist -44.127
rhand -10.1011 16.7277
rfingers 7.12502
rthumb 15.8862 -12.6407
lclavicle 3.49861e-014 3.18055e-014
lhumerus 84.178 -58.8896 15.0693
lradius 87.0777
lwrist 68.2679
lhand -15.0287 30.4014
lfingers 7.12502
lthumb 11.1371 60.0859
rfemur -42.0274 1.47257 19.0894
rtibia 36.361
rfoot -13.1547 -6.41169
rtoes -23.9216
lfemur -33.3839 2.18951 -11.9011
ltibia 24.3452
lfoot -8.11827 12.2945
ltoes -22.8422
